<?xml version="1.0" encoding="iso-8859-1"?>
<!-- Generator: Adobe Illustrator 19.0.0, SVG Export Plug-In . SVG Version: 6.00 Build 0)  -->
<svg version="1.1" id="Capa_1" xmlns="http://www.w3.org/2000/svg" xmlns:xlink="http://www.w3.org/1999/xlink" x="0px" y="0px"
	 viewBox="0 0 498.036 498.036" style="enable-background:new 0 0 498.036 498.036;" xml:space="preserve">
<circle style="fill:#FDBF5E;" cx="249.018" cy="249.794" r="248.242"/>
<path style="fill:#E1E6E9;" d="M304.097,375.467v95.418c0,10.861,8.533,19.394,19.394,19.394h146.618
	c10.861,0,19.394-8.533,19.394-19.394v-95.418H304.097z"/>
<path style="fill:#193651;" d="M470.109,498.036H323.491c-14.739,0-27.152-12.412-27.152-27.152v-95.418
	c0-4.655,3.103-7.758,7.758-7.758h185.406c4.655,0,7.758,3.103,7.758,7.758v95.418C497.261,485.624,484.849,498.036,470.109,498.036
	z M311.855,383.224v87.661c0,6.206,5.43,11.636,11.636,11.636h146.618c6.206,0,11.636-5.43,11.636-11.636v-87.661H311.855z"/>
<rect x="335.127" y="406.497" style="fill:#FFFFFF;" width="123.345" height="52.752"/>
<path style="fill:#2EA2DB;" d="M470.109,331.248H323.491c-10.861,0-19.394,8.533-19.394,19.394v24.824h185.406v-24.824
	C489.503,339.782,480.97,331.248,470.109,331.248z"/>
<path style="fill:#193651;" d="M489.503,383.224H304.097c-4.655,0-7.758-3.103-7.758-7.758v-24.824
	c0-14.739,12.412-27.152,27.152-27.152h146.618c14.739,0,27.152,12.412,27.152,27.152v24.824
	C497.261,380.121,494.158,383.224,489.503,383.224z M311.855,367.709h169.891v-17.067c0-6.206-5.43-11.636-11.636-11.636H323.491
	c-6.206,0-11.636,5.43-11.636,11.636V367.709z"/>
<path style="fill:#E1E6E9;" d="M8.533,375.467v95.418c0,10.861,8.533,19.394,19.394,19.394h146.618
	c10.861,0,19.394-8.533,19.394-19.394v-95.418H8.533z"/>
<path style="fill:#193651;" d="M174.545,498.036H27.927c-14.739,0-27.152-12.412-27.152-27.152v-95.418
	c0-4.655,3.103-7.758,7.758-7.758h185.406c4.655,0,7.758,3.103,7.758,7.758v95.418C201.697,485.624,190.061,498.036,174.545,498.036
	z M16.291,383.224v87.661c0,6.206,5.43,11.636,11.636,11.636h146.618c6.206,0,11.636-5.43,11.636-11.636v-87.661H16.291z"/>
<rect x="39.564" y="406.497" style="fill:#FFFFFF;" width="123.345" height="52.752"/>
<path style="fill:#F16051;" d="M174.545,331.248H27.927c-10.861,0-19.394,8.533-19.394,19.394v24.824h185.406v-24.824
	C193.939,339.782,185.406,331.248,174.545,331.248z"/>
<g>
	<path style="fill:#193651;" d="M174.545,323.491H27.927c-14.739,0-27.152,12.412-27.152,27.152v24.824
		c0,4.655,3.103,7.758,7.758,7.758h185.406c4.655,0,7.758-3.103,7.758-7.758v-24.824
		C201.697,335.903,190.061,323.491,174.545,323.491z M186.182,367.709H16.291v-17.067c0-6.206,5.43-11.636,11.636-11.636h146.618
		c6.206,0,11.636,5.43,11.636,11.636V367.709z"/>
	<path style="fill:#193651;" d="M396.412,339.006c-4.655,0-7.758-3.103-7.758-7.758v-47.321h-287.03v47.321
		c0,4.655-3.103,7.758-7.758,7.758s-7.758-3.103-7.758-7.758V276.17c0-4.655,3.103-7.758,7.758-7.758h302.545
		c4.655,0,7.758,3.103,7.758,7.758v55.079C404.17,335.903,401.067,339.006,396.412,339.006z"/>
	<path style="fill:#193651;" d="M245.139,283.927c-4.655,0-7.758-3.103-7.758-7.758v-52.752c0-4.655,3.103-7.758,7.758-7.758
		s7.758,3.103,7.758,7.758v52.752C252.897,280.824,249.794,283.927,245.139,283.927z"/>
	<rect x="350.642" y="425.115" style="fill:#193651;" width="15.515" height="15.515"/>
	<rect x="388.655" y="425.115" style="fill:#193651;" width="15.515" height="15.515"/>
	<rect x="426.667" y="425.115" style="fill:#193651;" width="15.515" height="15.515"/>
</g>
<g>
	<rect x="55.855" y="425.115" style="fill:#193651;" width="15.515" height="15.515"/>
	<rect x="93.867" y="425.115" style="fill:#193651;" width="15.515" height="15.515"/>
	<rect x="131.879" y="425.115" style="fill:#193651;" width="15.515" height="15.515"/>
</g>
<path style="fill:#FFFFFF;" d="M310.303,162.133H150.497c17.067,0,31.03,13.964,31.03,31.03s-13.964,31.03-31.03,31.03h159.806
	c17.067,0,31.03-13.964,31.03-31.03C340.558,175.321,326.594,162.133,310.303,162.133z"/>
<path style="fill:#193651;" d="M310.303,231.176H149.721c-4.655,0-7.758-3.103-7.758-7.758c0-4.655,3.103-7.758,7.758-7.758
	c12.412,0,23.273-10.085,23.273-23.273c0-12.412-10.085-23.273-23.273-23.273c-4.655,0-7.758-3.103-7.758-7.758
	c0-4.655,3.103-7.758,7.758-7.758h159.806c20.945,0,38.788,17.067,38.788,38.788C348.315,214.109,331.248,231.176,310.303,231.176z
	 M180.752,215.661h129.552c12.412,0,23.273-10.085,23.273-23.273c0-12.412-10.085-23.273-23.273-23.273H180.752
	c4.655,6.206,7.758,14.739,7.758,23.273C188.509,200.921,185.406,209.455,180.752,215.661z"/>
<rect x="149.721" y="7.758" style="fill:#4FBF9F;" width="151.273" height="154.376"/>
<path style="fill:#193651;" d="M300.994,169.891H149.721c-4.655,0-7.758-3.103-7.758-7.758V7.758c0-4.655,3.103-7.758,7.758-7.758
	h151.273c4.655,0,7.758,3.103,7.758,7.758v154.376C308.752,166.012,305.648,169.891,300.994,169.891z M157.479,154.376h135.758
	V15.515H157.479V154.376z"/>
<g>
	<rect x="184.63" y="38.788" style="fill:#FFFFFF;" width="81.455" height="41.115"/>
	<path style="fill:#FFFFFF;" d="M310.303,7.758h-8.533v154.376h8.533c17.067,0,31.03,13.964,31.03,31.03V38.788
		C340.558,21.721,326.594,7.758,310.303,7.758z"/>
</g>
<g>
	<path style="fill:#193651;" d="M340.558,200.145c-4.655,0-7.758-3.103-7.758-7.758c0-12.412-10.085-23.273-23.273-23.273h-8.533
		c-4.655,0-7.758-3.103-7.758-7.758V7.758c0-4.655,3.103-7.758,7.758-7.758h8.533c20.945,0,38.788,17.067,38.788,38.788v154.376
		C348.315,197.042,345.212,200.145,340.558,200.145z M308.752,154.376h0.776c8.533,0,16.291,3.103,23.273,7.758V38.788
		c0-12.412-10.085-23.273-23.273-23.273h-0.776V154.376z"/>
	<path style="fill:#193651;" d="M283.927,200.145H180.752c-4.655,0-7.758-3.103-7.758-7.758c0-4.655,3.103-7.758,7.758-7.758
		h103.176c4.655,0,7.758,3.103,7.758,7.758C291.685,197.042,287.806,200.145,283.927,200.145z"/>
</g>
<g>
</g>
<g>
</g>
<g>
</g>
<g>
</g>
<g>
</g>
<g>
</g>
<g>
</g>
<g>
</g>
<g>
</g>
<g>
</g>
<g>
</g>
<g>
</g>
<g>
</g>
<g>
</g>
<g>
</g>
</svg>
