<?xml version="1.0" standalone="no"?><svg xmlns:xlink="http://www.w3.org/1999/xlink" xmlns="http://www.w3.org/2000/svg" viewBox="0 0 1000 437.50000000000006" preserveAspectRatio="xMaxYMax slice"><g transform="scale(0.687757909215956)"><rect x="0" y="0" width="1454" height="636.125" fill="#ffffff"/><circle cx="45.44" cy="45.44" r="45.44" fill="#fedbcd"/><circle cx="136.32" cy="45.44" r="45.44" fill="#fbf5ec"/><circle cx="227.19" cy="45.44" r="45.44" fill="#fff2ec"/><rect x="272.625" y="0" width="90.875" height="90.875" fill="#ffffff"/><circle cx="295.35" cy="22.72" r="22.72" fill="#fdc0a7"/><circle cx="340.78" cy="22.72" r="22.72" fill="#f4e4ce"/><circle cx="295.35" cy="68.16" r="22.72" fill="#fca27c"/><circle cx="340.78" cy="68.16" r="22.72" fill="#fed7c6"/><circle cx="408.94" cy="45.44" r="45.44" fill="#f5e7d3"/><rect x="454.375" y="0" width="90.875" height="90.875" fill="#ffffff"/><circle cx="477.1" cy="22.72" r="22.72" fill="#fee5da"/><circle cx="522.53" cy="22.72" r="22.72" fill="#fed8c9"/><circle cx="477.1" cy="68.16" r="22.72" fill="#faf2e8"/><circle cx="522.53" cy="68.16" r="22.72" fill="#fdb79a"/><circle cx="590.69" cy="45.44" r="45.44" fill="#f9f1e5"/><rect x="636.125" y="0" width="90.875" height="90.875" fill="#ffffff"/><circle cx="658.85" cy="22.72" r="22.72" fill="#fff4ef"/><circle cx="704.28" cy="22.72" r="22.72" fill="#f7ecdd"/><circle cx="658.85" cy="68.16" r="22.72" fill="#fff1ec"/><circle cx="704.28" cy="68.16" r="22.72" fill="#fff2ed"/><rect x="727" y="0" width="90.875" height="90.875" fill="#ffffff"/><circle cx="749.72" cy="22.72" r="22.72" fill="#fee1d5"/><circle cx="795.1600000000001" cy="22.72" r="22.72" fill="#fff2ec"/><circle cx="749.72" cy="68.16" r="22.72" fill="#fdb89b"/><circle cx="795.1600000000001" cy="68.16" r="22.72" fill="#fcaf8e"/><rect x="817.875" y="0" width="90.875" height="90.875" fill="#ffffff"/><circle cx="840.6" cy="22.72" r="22.72" fill="#fee8df"/><circle cx="886.03" cy="22.72" r="22.72" fill="#faf4ea"/><circle cx="840.6" cy="68.16" r="22.72" fill="#fffefe"/><circle cx="886.03" cy="68.16" r="22.72" fill="#fff2ec"/><rect x="908.75" y="0" width="90.875" height="90.875" fill="#ffffff"/><circle cx="931.47" cy="22.72" r="22.72" fill="#f4e6d1"/><circle cx="976.9100000000001" cy="22.72" r="22.72" fill="#fefdfb"/><circle cx="931.47" cy="68.16" r="22.72" fill="#fefdfc"/><circle cx="976.9100000000001" cy="68.16" r="22.72" fill="#f6ead9"/><rect x="999.625" y="0" width="90.875" height="90.875" fill="#ffffff"/><circle cx="1022.35" cy="22.72" r="22.72" fill="#fbf6ee"/><circle cx="1067.78" cy="22.72" r="22.72" fill="#faf3e9"/><circle cx="1022.35" cy="68.16" r="22.72" fill="#f8eee0"/><circle cx="1067.78" cy="68.16" r="22.72" fill="#f8eee0"/><rect x="1090.5" y="0" width="90.875" height="90.875" fill="#ffffff"/><circle cx="1113.22" cy="22.72" r="22.72" fill="#fedbcc"/><circle cx="1158.66" cy="22.72" r="22.72" fill="#fcb191"/><circle cx="1113.22" cy="68.16" r="22.72" fill="#fefdfc"/><circle cx="1158.66" cy="68.16" r="22.72" fill="#fefefd"/><rect x="1181.375" y="0" width="90.875" height="90.875" fill="#ffffff"/><circle cx="1204.1000000000001" cy="22.72" r="22.72" fill="#fb986e"/><circle cx="1249.53" cy="22.72" r="22.72" fill="#fca986"/><circle cx="1204.1000000000001" cy="68.16" r="22.72" fill="#fdb89b"/><circle cx="1249.53" cy="68.16" r="22.72" fill="#fff1eb"/><circle cx="1317.69" cy="45.44" r="45.44" fill="#f9f1e6"/><rect x="1363.125" y="0" width="90.875" height="90.875" fill="#ffffff"/><circle cx="1385.8500000000001" cy="22.72" r="22.72" fill="#fffefd"/><circle cx="1431.28" cy="22.72" r="22.72" fill="#fcad8c"/><circle cx="1385.8500000000001" cy="68.16" r="22.72" fill="#fee6dc"/><circle cx="1431.28" cy="68.16" r="22.72" fill="#fdf9f5"/><rect x="0" y="90.875" width="90.875" height="90.875" fill="#ffffff"/><circle cx="22.72" cy="113.6" r="22.72" fill="#fffcfb"/><circle cx="68.16" cy="113.6" r="22.72" fill="#f5e8d5"/><circle cx="22.72" cy="159.03" r="22.72" fill="#fcb191"/><circle cx="68.16" cy="159.03" r="22.72" fill="#f3e4ce"/><rect x="90.875" y="90.875" width="90.875" height="90.875" fill="#ffffff"/><circle cx="113.6" cy="113.6" r="22.72" fill="#fff8f5"/><circle cx="159.03" cy="113.6" r="22.72" fill="#fca885"/><circle cx="113.6" cy="159.03" r="22.72" fill="#fcb293"/><circle cx="159.03" cy="159.03" r="22.72" fill="#fee7dd"/><rect x="181.75" y="90.875" width="90.875" height="90.875" fill="#ffffff"/><circle cx="204.47" cy="113.6" r="22.72" fill="#fdfaf7"/><circle cx="249.91" cy="113.6" r="22.72" fill="#fff8f5"/><circle cx="204.47" cy="159.03" r="22.72" fill="#fbf5ec"/><circle cx="249.91" cy="159.03" r="22.72" fill="#fca683"/><rect x="272.625" y="90.875" width="90.875" height="90.875" fill="#ffffff"/><circle cx="295.35" cy="113.6" r="22.72" fill="#fffffe"/><circle cx="340.78" cy="113.6" r="22.72" fill="#fb9063"/><circle cx="295.35" cy="159.03" r="22.72" fill="#fb8f61"/><circle cx="340.78" cy="159.03" r="22.72" fill="#f7ecdc"/><circle cx="408.94" cy="136.32" r="45.44" fill="#fdb89c"/><rect x="454.375" y="90.875" width="90.875" height="90.875" fill="#ffffff"/><circle cx="477.1" cy="113.6" r="22.72" fill="#fdb89c"/><circle cx="522.53" cy="113.6" r="22.72" fill="#faf3e9"/><circle cx="477.1" cy="159.03" r="22.72" fill="#f6ead9"/><circle cx="522.53" cy="159.03" r="22.72" fill="#f3e3cc"/><rect x="545.25" y="90.875" width="90.875" height="90.875" fill="#ffffff"/><circle cx="567.97" cy="113.6" r="22.72" fill="#fdc1a8"/><circle cx="613.4100000000001" cy="113.6" r="22.72" fill="#fee1d5"/><circle cx="567.97" cy="159.03" r="22.72" fill="#feddcf"/><circle cx="613.4100000000001" cy="159.03" r="22.72" fill="#fdd1bf"/><circle cx="681.5699999999999" cy="136.32" r="45.44" fill="#fdb89c"/><rect x="727" y="90.875" width="90.875" height="90.875" fill="#ffffff"/><circle cx="749.72" cy="113.6" r="22.72" fill="#feddcf"/><circle cx="795.1600000000001" cy="113.6" r="22.72" fill="#fcb597"/><circle cx="749.72" cy="159.03" r="22.72" fill="#fca885"/><circle cx="795.1600000000001" cy="159.03" r="22.72" fill="#f8eee0"/><circle cx="863.3199999999999" cy="136.32" r="45.44" fill="#fc9e77"/><circle cx="954.19" cy="136.32" r="45.44" fill="#fcf7f0"/><circle cx="1045.07" cy="136.32" r="45.44" fill="#fdcdb9"/><circle cx="1135.94" cy="136.32" r="45.44" fill="#fffefd"/><circle cx="1226.8200000000002" cy="136.32" r="45.44" fill="#fefcf9"/><circle cx="1317.69" cy="136.32" r="45.44" fill="#f6e9d7"/><rect x="1363.125" y="90.875" width="90.875" height="90.875" fill="#ffffff"/><circle cx="1385.8500000000001" cy="113.6" r="22.72" fill="#fff3ee"/><circle cx="1431.28" cy="113.6" r="22.72" fill="#fb8f62"/><circle cx="1385.8500000000001" cy="159.03" r="22.72" fill="#f3e3cd"/><circle cx="1431.28" cy="159.03" r="22.72" fill="#fc9e76"/><rect x="0" y="181.75" width="90.875" height="90.875" fill="#ffffff"/><circle cx="22.72" cy="204.47" r="22.72" fill="#f9f2e6"/><circle cx="68.16" cy="204.47" r="22.72" fill="#fdcdb9"/><circle cx="22.72" cy="249.91" r="22.72" fill="#fcad8c"/><circle cx="68.16" cy="249.91" r="22.72" fill="#feece4"/><circle cx="136.32" cy="227.19" r="45.44" fill="#fbf6ef"/><rect x="181.75" y="181.75" width="90.875" height="90.875" fill="#ffffff"/><circle cx="204.47" cy="204.47" r="22.72" fill="#fdc3aa"/><circle cx="249.91" cy="204.47" r="22.72" fill="#fbf6ef"/><circle cx="204.47" cy="249.91" r="22.72" fill="#f9f1e5"/><circle cx="249.91" cy="249.91" r="22.72" fill="#f6e9d7"/><circle cx="318.07" cy="227.19" r="45.44" fill="#fdcebb"/><circle cx="408.94" cy="227.19" r="45.44" fill="#fcf9f4"/><circle cx="499.82" cy="227.19" r="45.44" fill="#fcad8b"/><circle cx="590.69" cy="227.19" r="45.44" fill="#fee0d3"/><rect x="636.125" y="181.75" width="90.875" height="90.875" fill="#ffffff"/><circle cx="658.85" cy="204.47" r="22.72" fill="#fedcce"/><circle cx="704.28" cy="204.47" r="22.72" fill="#fffcfa"/><circle cx="658.85" cy="249.91" r="22.72" fill="#f9f2e7"/><circle cx="704.28" cy="249.91" r="22.72" fill="#fb996f"/><rect x="727" y="181.75" width="90.875" height="90.875" fill="#ffffff"/><circle cx="749.72" cy="204.47" r="22.72" fill="#f7ecdc"/><circle cx="795.1600000000001" cy="204.47" r="22.72" fill="#fefdfb"/><circle cx="749.72" cy="249.91" r="22.72" fill="#f4e6d1"/><circle cx="795.1600000000001" cy="249.91" r="22.72" fill="#f7ecdd"/><circle cx="863.3199999999999" cy="227.19" r="45.44" fill="#fb8b5c"/><rect x="908.75" y="181.75" width="90.875" height="90.875" fill="#ffffff"/><circle cx="931.47" cy="204.47" r="22.72" fill="#fcf9f3"/><circle cx="976.9100000000001" cy="204.47" r="22.72" fill="#f4e5d0"/><circle cx="931.47" cy="249.91" r="22.72" fill="#faf4eb"/><circle cx="976.9100000000001" cy="249.91" r="22.72" fill="#fdfaf5"/><circle cx="1045.07" cy="227.19" r="45.44" fill="#f9f2e7"/><circle cx="1135.94" cy="227.19" r="45.44" fill="#fb9063"/><circle cx="1226.8200000000002" cy="227.19" r="45.44" fill="#fdc4ac"/><rect x="1272.25" y="181.75" width="90.875" height="90.875" fill="#ffffff"/><circle cx="1294.97" cy="204.47" r="22.72" fill="#f7edde"/><circle cx="1340.41" cy="204.47" r="22.72" fill="#fff4ef"/><circle cx="1294.97" cy="249.91" r="22.72" fill="#fee9e0"/><circle cx="1340.41" cy="249.91" r="22.72" fill="#f9f1e5"/><rect x="1363.125" y="181.75" width="90.875" height="90.875" fill="#ffffff"/><circle cx="1385.8500000000001" cy="204.47" r="22.72" fill="#f4e6d1"/><circle cx="1431.28" cy="204.47" r="22.72" fill="#f9f1e5"/><circle cx="1385.8500000000001" cy="249.91" r="22.72" fill="#fcf8f3"/><circle cx="1431.28" cy="249.91" r="22.72" fill="#fdc9b3"/><rect x="0" y="272.625" width="90.875" height="90.875" fill="#ffffff"/><circle cx="22.72" cy="295.35" r="22.72" fill="#fffffe"/><circle cx="68.16" cy="295.35" r="22.72" fill="#fff5f1"/><circle cx="22.72" cy="340.78" r="22.72" fill="#f5e7d3"/><circle cx="68.16" cy="340.78" r="22.72" fill="#fdc1a7"/><rect x="90.875" y="272.625" width="90.875" height="90.875" fill="#ffffff"/><circle cx="113.6" cy="295.35" r="22.72" fill="#f6e9d8"/><circle cx="159.03" cy="295.35" r="22.72" fill="#fdc6af"/><circle cx="113.6" cy="340.78" r="22.72" fill="#faf2e8"/><circle cx="159.03" cy="340.78" r="22.72" fill="#fc9e77"/><circle cx="227.19" cy="318.07" r="45.44" fill="#fdbea3"/><rect x="272.625" y="272.625" width="90.875" height="90.875" fill="#ffffff"/><circle cx="295.35" cy="295.35" r="22.72" fill="#fb8f61"/><circle cx="340.78" cy="295.35" r="22.72" fill="#fee3d7"/><circle cx="295.35" cy="340.78" r="22.72" fill="#f8efe1"/><circle cx="340.78" cy="340.78" r="22.72" fill="#feeee7"/><rect x="363.5" y="272.625" width="90.875" height="90.875" fill="#ffffff"/><circle cx="386.22" cy="295.35" r="22.72" fill="#f6ead9"/><circle cx="431.65999999999997" cy="295.35" r="22.72" fill="#fdb79a"/><circle cx="386.22" cy="340.78" r="22.72" fill="#fbf5ed"/><circle cx="431.65999999999997" cy="340.78" r="22.72" fill="#fb8f62"/><circle cx="499.82" cy="318.07" r="45.44" fill="#f7eddf"/><circle cx="590.69" cy="318.07" r="45.44" fill="#fdc4ab"/><circle cx="681.5699999999999" cy="318.07" r="45.44" fill="#fed5c4"/><rect x="727" y="272.625" width="90.875" height="90.875" fill="#ffffff"/><circle cx="749.72" cy="295.35" r="22.72" fill="#fdc6b0"/><circle cx="795.1600000000001" cy="295.35" r="22.72" fill="#fffbfa"/><circle cx="749.72" cy="340.78" r="22.72" fill="#fdc6af"/><circle cx="795.1600000000001" cy="340.78" r="22.72" fill="#f9f1e6"/><rect x="817.875" y="272.625" width="90.875" height="90.875" fill="#ffffff"/><circle cx="840.6" cy="295.35" r="22.72" fill="#fedacb"/><circle cx="886.03" cy="295.35" r="22.72" fill="#fdcfbc"/><circle cx="840.6" cy="340.78" r="22.72" fill="#fff5f2"/><circle cx="886.03" cy="340.78" r="22.72" fill="#fcb597"/><circle cx="954.19" cy="318.07" r="45.44" fill="#fdfaf5"/><rect x="999.625" y="272.625" width="90.875" height="90.875" fill="#ffffff"/><circle cx="1022.35" cy="295.35" r="22.72" fill="#fffefe"/><circle cx="1067.78" cy="295.35" r="22.72" fill="#feefe9"/><circle cx="1022.35" cy="340.78" r="22.72" fill="#fee8df"/><circle cx="1067.78" cy="340.78" r="22.72" fill="#fdf9f4"/><rect x="1090.5" y="272.625" width="90.875" height="90.875" fill="#ffffff"/><circle cx="1113.22" cy="295.35" r="22.72" fill="#fdbca1"/><circle cx="1158.66" cy="295.35" r="22.72" fill="#fcad8c"/><circle cx="1113.22" cy="340.78" r="22.72" fill="#fb9367"/><circle cx="1158.66" cy="340.78" r="22.72" fill="#fcb496"/><circle cx="1226.8200000000002" cy="318.07" r="45.44" fill="#faf3ea"/><rect x="1272.25" y="272.625" width="90.875" height="90.875" fill="#ffffff"/><circle cx="1294.97" cy="295.35" r="22.72" fill="#fdba9e"/><circle cx="1340.41" cy="295.35" r="22.72" fill="#fdccb7"/><circle cx="1294.97" cy="340.78" r="22.72" fill="#f9f2e7"/><circle cx="1340.41" cy="340.78" r="22.72" fill="#f6ebda"/><rect x="1363.125" y="272.625" width="90.875" height="90.875" fill="#ffffff"/><circle cx="1385.8500000000001" cy="295.35" r="22.72" fill="#f7ecdd"/><circle cx="1431.28" cy="295.35" r="22.72" fill="#f8eee0"/><circle cx="1385.8500000000001" cy="340.78" r="22.72" fill="#fdb99c"/><circle cx="1431.28" cy="340.78" r="22.72" fill="#fefdfb"/><rect x="0" y="363.5" width="90.875" height="90.875" fill="#ffffff"/><circle cx="22.72" cy="386.22" r="22.72" fill="#fc9a70"/><circle cx="68.16" cy="386.22" r="22.72" fill="#fffffe"/><circle cx="22.72" cy="431.65999999999997" r="22.72" fill="#fdcab5"/><circle cx="68.16" cy="431.65999999999997" r="22.72" fill="#fed5c3"/><circle cx="136.32" cy="408.94" r="45.44" fill="#fff6f3"/><rect x="181.75" y="363.5" width="90.875" height="90.875" fill="#ffffff"/><circle cx="204.47" cy="386.22" r="22.72" fill="#fcb293"/><circle cx="249.91" cy="386.22" r="22.72" fill="#fefefd"/><circle cx="204.47" cy="431.65999999999997" r="22.72" fill="#fcaf8e"/><circle cx="249.91" cy="431.65999999999997" r="22.72" fill="#fcb090"/><rect x="272.625" y="363.5" width="90.875" height="90.875" fill="#ffffff"/><circle cx="295.35" cy="386.22" r="22.72" fill="#fdcfbb"/><circle cx="340.78" cy="386.22" r="22.72" fill="#fdbb9f"/><circle cx="295.35" cy="431.65999999999997" r="22.72" fill="#fefcf9"/><circle cx="340.78" cy="431.65999999999997" r="22.72" fill="#fb8f62"/><rect x="363.5" y="363.5" width="90.875" height="90.875" fill="#ffffff"/><circle cx="386.22" cy="386.22" r="22.72" fill="#fb9970"/><circle cx="431.65999999999997" cy="386.22" r="22.72" fill="#fca37d"/><circle cx="386.22" cy="431.65999999999997" r="22.72" fill="#f9f1e6"/><circle cx="431.65999999999997" cy="431.65999999999997" r="22.72" fill="#fdccb8"/><circle cx="499.82" cy="408.94" r="45.44" fill="#f6ead8"/><circle cx="590.69" cy="408.94" r="45.44" fill="#fffdfd"/><rect x="636.125" y="363.5" width="90.875" height="90.875" fill="#ffffff"/><circle cx="658.85" cy="386.22" r="22.72" fill="#f6e9d7"/><circle cx="704.28" cy="386.22" r="22.72" fill="#fcb08f"/><circle cx="658.85" cy="431.65999999999997" r="22.72" fill="#fee5da"/><circle cx="704.28" cy="431.65999999999997" r="22.72" fill="#fedcce"/><rect x="727" y="363.5" width="90.875" height="90.875" fill="#ffffff"/><circle cx="749.72" cy="386.22" r="22.72" fill="#fcaf8e"/><circle cx="795.1600000000001" cy="386.22" r="22.72" fill="#fdb99d"/><circle cx="749.72" cy="431.65999999999997" r="22.72" fill="#fdfaf7"/><circle cx="795.1600000000001" cy="431.65999999999997" r="22.72" fill="#fdcdb9"/><rect x="817.875" y="363.5" width="90.875" height="90.875" fill="#ffffff"/><circle cx="840.6" cy="386.22" r="22.72" fill="#f8eee0"/><circle cx="886.03" cy="386.22" r="22.72" fill="#feece5"/><circle cx="840.6" cy="431.65999999999997" r="22.72" fill="#fcae8d"/><circle cx="886.03" cy="431.65999999999997" r="22.72" fill="#fff4f0"/><rect x="908.75" y="363.5" width="90.875" height="90.875" fill="#ffffff"/><circle cx="931.47" cy="386.22" r="22.72" fill="#fdc5ad"/><circle cx="976.9100000000001" cy="386.22" r="22.72" fill="#f8efe2"/><circle cx="931.47" cy="431.65999999999997" r="22.72" fill="#fb9368"/><circle cx="976.9100000000001" cy="431.65999999999997" r="22.72" fill="#fcb395"/><rect x="999.625" y="363.5" width="90.875" height="90.875" fill="#ffffff"/><circle cx="1022.35" cy="386.22" r="22.72" fill="#fb8b5c"/><circle cx="1067.78" cy="386.22" r="22.72" fill="#fffefe"/><circle cx="1022.35" cy="431.65999999999997" r="22.72" fill="#fb986e"/><circle cx="1067.78" cy="431.65999999999997" r="22.72" fill="#fedacb"/><circle cx="1135.94" cy="408.94" r="45.44" fill="#f8eee0"/><rect x="1181.375" y="363.5" width="90.875" height="90.875" fill="#ffffff"/><circle cx="1204.1000000000001" cy="386.22" r="22.72" fill="#f4e6d2"/><circle cx="1249.53" cy="386.22" r="22.72" fill="#f8efe1"/><circle cx="1204.1000000000001" cy="431.65999999999997" r="22.72" fill="#fb9266"/><circle cx="1249.53" cy="431.65999999999997" r="22.72" fill="#fee7dd"/><rect x="1272.25" y="363.5" width="90.875" height="90.875" fill="#ffffff"/><circle cx="1294.97" cy="386.22" r="22.72" fill="#fdc4ad"/><circle cx="1340.41" cy="386.22" r="22.72" fill="#f5e8d6"/><circle cx="1294.97" cy="431.65999999999997" r="22.72" fill="#fdf9f5"/><circle cx="1340.41" cy="431.65999999999997" r="22.72" fill="#fffefe"/><circle cx="1408.5700000000002" cy="408.94" r="45.44" fill="#f3e3cd"/><circle cx="45.44" cy="499.82" r="45.44" fill="#faf4ec"/><circle cx="136.32" cy="499.82" r="45.44" fill="#fbf5ed"/><circle cx="227.19" cy="499.82" r="45.44" fill="#fcf8f3"/><circle cx="318.07" cy="499.82" r="45.44" fill="#fb9267"/><circle cx="408.94" cy="499.82" r="45.44" fill="#fbf5ed"/><rect x="454.375" y="454.375" width="90.875" height="90.875" fill="#ffffff"/><circle cx="477.1" cy="477.1" r="22.72" fill="#f6ebda"/><circle cx="522.53" cy="477.1" r="22.72" fill="#fee9e1"/><circle cx="477.1" cy="522.53" r="22.72" fill="#fb9469"/><circle cx="522.53" cy="522.53" r="22.72" fill="#fc9e77"/><rect x="545.25" y="454.375" width="90.875" height="90.875" fill="#ffffff"/><circle cx="567.97" cy="477.1" r="22.72" fill="#fcf8f3"/><circle cx="613.4100000000001" cy="477.1" r="22.72" fill="#fcf7f0"/><circle cx="567.97" cy="522.53" r="22.72" fill="#fffefe"/><circle cx="613.4100000000001" cy="522.53" r="22.72" fill="#f4e4ce"/><circle cx="681.5699999999999" cy="499.82" r="45.44" fill="#f7ecdd"/><rect x="727" y="454.375" width="90.875" height="90.875" fill="#ffffff"/><circle cx="749.72" cy="477.1" r="22.72" fill="#fffefd"/><circle cx="795.1600000000001" cy="477.1" r="22.72" fill="#fcf9f4"/><circle cx="749.72" cy="522.53" r="22.72" fill="#ffffff"/><circle cx="795.1600000000001" cy="522.53" r="22.72" fill="#fdbda2"/><rect x="817.875" y="454.375" width="90.875" height="90.875" fill="#ffffff"/><circle cx="840.6" cy="477.1" r="22.72" fill="#fb956a"/><circle cx="886.03" cy="477.1" r="22.72" fill="#f6ebda"/><circle cx="840.6" cy="522.53" r="22.72" fill="#fc9c73"/><circle cx="886.03" cy="522.53" r="22.72" fill="#f8efe2"/><rect x="908.75" y="454.375" width="90.875" height="90.875" fill="#ffffff"/><circle cx="931.47" cy="477.1" r="22.72" fill="#fb8d5f"/><circle cx="976.9100000000001" cy="477.1" r="22.72" fill="#fee9e0"/><circle cx="931.47" cy="522.53" r="22.72" fill="#fffbf9"/><circle cx="976.9100000000001" cy="522.53" r="22.72" fill="#fdba9d"/><rect x="999.625" y="454.375" width="90.875" height="90.875" fill="#ffffff"/><circle cx="1022.35" cy="477.1" r="22.72" fill="#f8eee0"/><circle cx="1067.78" cy="477.1" r="22.72" fill="#faf3e9"/><circle cx="1022.35" cy="522.53" r="22.72" fill="#fbf5ed"/><circle cx="1067.78" cy="522.53" r="22.72" fill="#f3e4cd"/><rect x="1090.5" y="454.375" width="90.875" height="90.875" fill="#ffffff"/><circle cx="1113.22" cy="477.1" r="22.72" fill="#fed6c5"/><circle cx="1158.66" cy="477.1" r="22.72" fill="#fbf6ef"/><circle cx="1113.22" cy="522.53" r="22.72" fill="#fee5da"/><circle cx="1158.66" cy="522.53" r="22.72" fill="#f7ecdd"/><circle cx="1226.8200000000002" cy="499.82" r="45.44" fill="#feebe3"/><rect x="1272.25" y="454.375" width="90.875" height="90.875" fill="#ffffff"/><circle cx="1294.97" cy="477.1" r="22.72" fill="#f5e8d5"/><circle cx="1340.41" cy="477.1" r="22.72" fill="#fffdfc"/><circle cx="1294.97" cy="522.53" r="22.72" fill="#f7ebdb"/><circle cx="1340.41" cy="522.53" r="22.72" fill="#f7ecdc"/><rect x="1363.125" y="454.375" width="90.875" height="90.875" fill="#ffffff"/><circle cx="1385.8500000000001" cy="477.1" r="22.72" fill="#fefcf9"/><circle cx="1431.28" cy="477.1" r="22.72" fill="#f9f1e6"/><circle cx="1385.8500000000001" cy="522.53" r="22.72" fill="#f6ead8"/><circle cx="1431.28" cy="522.53" r="22.72" fill="#f7ebdb"/><circle cx="45.44" cy="590.69" r="45.44" fill="#f4e5cf"/><rect x="90.875" y="545.25" width="90.875" height="90.875" fill="#ffffff"/><circle cx="113.6" cy="567.97" r="22.72" fill="#fb966b"/><circle cx="159.03" cy="567.97" r="22.72" fill="#fffcfb"/><circle cx="113.6" cy="613.4100000000001" r="22.72" fill="#fffffe"/><circle cx="159.03" cy="613.4100000000001" r="22.72" fill="#fdf9f5"/><circle cx="227.19" cy="590.69" r="45.44" fill="#f7ecdc"/><circle cx="318.07" cy="590.69" r="45.44" fill="#fffdfc"/><rect x="363.5" y="545.25" width="90.875" height="90.875" fill="#ffffff"/><circle cx="386.22" cy="567.97" r="22.72" fill="#fdc2aa"/><circle cx="431.65999999999997" cy="567.97" r="22.72" fill="#f8efe2"/><circle cx="386.22" cy="613.4100000000001" r="22.72" fill="#f5e8d6"/><circle cx="431.65999999999997" cy="613.4100000000001" r="22.72" fill="#fcb394"/><circle cx="499.82" cy="590.69" r="45.44" fill="#fca37e"/><circle cx="590.69" cy="590.69" r="45.44" fill="#fbf5ed"/><rect x="636.125" y="545.25" width="90.875" height="90.875" fill="#ffffff"/><circle cx="658.85" cy="567.97" r="22.72" fill="#f8efe2"/><circle cx="704.28" cy="567.97" r="22.72" fill="#fdb79b"/><circle cx="658.85" cy="613.4100000000001" r="22.72" fill="#fedacb"/><circle cx="704.28" cy="613.4100000000001" r="22.72" fill="#fb8b5c"/><rect x="727" y="545.25" width="90.875" height="90.875" fill="#ffffff"/><circle cx="749.72" cy="567.97" r="22.72" fill="#fdc2a9"/><circle cx="795.1600000000001" cy="567.97" r="22.72" fill="#fdfaf6"/><circle cx="749.72" cy="613.4100000000001" r="22.72" fill="#fffefe"/><circle cx="795.1600000000001" cy="613.4100000000001" r="22.72" fill="#f6ebda"/><circle cx="863.3199999999999" cy="590.69" r="45.44" fill="#fbf6ee"/><circle cx="954.19" cy="590.69" r="45.44" fill="#fff9f7"/><rect x="999.625" y="545.25" width="90.875" height="90.875" fill="#ffffff"/><circle cx="1022.35" cy="567.97" r="22.72" fill="#fdb99c"/><circle cx="1067.78" cy="567.97" r="22.72" fill="#fdc7b1"/><circle cx="1022.35" cy="613.4100000000001" r="22.72" fill="#faf4eb"/><circle cx="1067.78" cy="613.4100000000001" r="22.72" fill="#fbf6ef"/><circle cx="1135.94" cy="590.69" r="45.44" fill="#fca986"/><circle cx="1226.8200000000002" cy="590.69" r="45.44" fill="#fcb394"/><rect x="1272.25" y="545.25" width="90.875" height="90.875" fill="#ffffff"/><circle cx="1294.97" cy="567.97" r="22.72" fill="#feddcf"/><circle cx="1340.41" cy="567.97" r="22.72" fill="#fed7c7"/><circle cx="1294.97" cy="613.4100000000001" r="22.72" fill="#ffffff"/><circle cx="1340.41" cy="613.4100000000001" r="22.72" fill="#faf3e9"/><circle cx="1408.5700000000002" cy="590.69" r="45.44" fill="#f7ecdd"/></g></svg>