<svg id="Layer_3" enable-background="new 0 0 64 64" height="512" viewBox="0 0 64 64" width="512" xmlns="http://www.w3.org/2000/svg"><g><g><path d="m2 2h60v30h-60z" fill="#4e4a40"/></g><g><path d="m2 32h16.935c10.53-4.174 17.98-14.442 17.98-26.458 0-1.2-.083-2.381-.227-3.542h-34.688z" fill="#8a8275"/></g><g><path d="m6 6h52v22h-52z" fill="#d5cec2"/></g><g><path d="m6 6v22h19.925c6.573-5.12 10.837-13.057 10.979-22z" fill="#e7e4dd"/></g><g><path d="m2 41h26v4h-26z" fill="#e2b88f"/></g><g><path d="m36 41h26v4h-26z" fill="#e2b88f"/></g><g><path d="m43 51h12v4h-12z" fill="#6b442b"/></g><g><path d="m9 51h12v4h-12z" fill="#6b442b"/></g><g><path d="m55 45v-2c0-3.314-2.686-6-6-6-3.314 0-6 2.686-6 6v2z" fill="#6b442b"/></g><g><path d="m21 45v-2c0-3.314-2.686-6-6-6-3.314 0-6 2.686-6 6v2z" fill="#6b442b"/></g><g><path d="m26 32h12v4h-12z" fill="#9d958c"/></g><g><path d="m49 32v-6h5v6" fill="#b4e05d"/></g><g><path d="m22 45h-2v-2c0-2.757-2.243-5-5-5s-5 2.243-5 5v2h-2v-2c0-3.86 3.141-7 7-7s7 3.14 7 7z"/></g><g><path d="m10 45h2v6h-2z"/></g><g><path d="m18 45h2v6h-2z"/></g><g><path d="m21 56h-12c-.553 0-1-.448-1-1v-4c0-.552.447-1 1-1h12c.553 0 1 .448 1 1v4c0 .552-.447 1-1 1zm-11-2h10v-2h-10z"/></g><g><path d="m10 55h2v8h-2z"/></g><g><path d="m18 55h2v8h-2z"/></g><g><path d="m28 46h-26c-.553 0-1-.448-1-1v-4c0-.552.447-1 1-1h7v2h-6v2h24v-2h-6v-2h7c.553 0 1 .448 1 1v4c0 .552-.447 1-1 1z"/></g><g><path d="m1 45h2v18h-2z"/></g><g><path d="m27 45h2v18h-2z"/></g><g><path d="m56 45h-2v-2c0-2.757-2.243-5-5-5s-5 2.243-5 5v2h-2v-2c0-3.86 3.141-7 7-7s7 3.14 7 7z"/></g><g><path d="m44 45h2v6h-2z"/></g><g><path d="m52 45h2v6h-2z"/></g><g><path d="m55 56h-12c-.553 0-1-.448-1-1v-4c0-.552.447-1 1-1h12c.553 0 1 .448 1 1v4c0 .552-.447 1-1 1zm-11-2h10v-2h-10z"/></g><g><path d="m44 55h2v8h-2z"/></g><g><path d="m52 55h2v8h-2z"/></g><g><path d="m62 46h-26c-.553 0-1-.448-1-1v-4c0-.552.447-1 1-1h7v2h-6v2h24v-2h-6v-2h7c.553 0 1 .448 1 1v4c0 .552-.447 1-1 1z"/></g><g><path d="m35 45h2v18h-2z"/></g><g><path d="m61 45h2v18h-2z"/></g><g><path d="m62 33h-60c-.553 0-1-.448-1-1v-30c0-.552.447-1 1-1h60c.553 0 1 .448 1 1v30c0 .552-.447 1-1 1zm-59-2h58v-28h-58z"/></g><g><path d="m38 37h-12c-.553 0-1-.448-1-1v-4h2v3h10v-3h2v4c0 .552-.447 1-1 1z"/></g><g><path d="m55 32h-2v-5h-3v5h-2v-6c0-.552.447-1 1-1h5c.553 0 1 .448 1 1z"/></g><g><path d="m58 29h-4v-2h3v-20h-50v20h42v2h-43c-.553 0-1-.448-1-1v-22c0-.552.447-1 1-1h52c.553 0 1 .448 1 1v22c0 .552-.447 1-1 1z"/></g></g></svg>