<svg height="512pt" viewBox="-29 0 512 512" width="512pt" xmlns="http://www.w3.org/2000/svg"><path d="m106.289062 494.898438c-1.691406 4.703124 1.75 9.671874 6.695313 9.671874h32.320313c2.996093 0 5.671874-1.894531 6.695312-4.742187l39.757812-110.5h-47.484374zm0 0" fill="#c46f5f"/><path d="m348.148438 494.898438-37.984376-105.566407h-47.484374l39.757812 110.5c1.023438 2.84375 3.699219 4.742188 6.695312 4.742188h32.320313c4.945313-.003907 8.386719-4.972657 6.695313-9.675781zm0 0" fill="#c46f5f"/><path d="m136.289062 494.898438 37.988282-105.566407h-30.003906l-37.984376 105.566407c-1.691406 4.703124 1.75 9.671874 6.695313 9.671874h30c-4.945313 0-8.386719-4.96875-6.695313-9.671874zm0 0" fill="#b45f4a"/><path d="m332.4375 499.828125-39.757812-110.5h-30l39.757812 110.5c1.023438 2.847656 3.699219 4.742187 6.695312 4.742187h30c-2.992187 0-5.667968-1.894531-6.695312-4.742187zm0 0" fill="#b45f4a"/><path d="m109.03125 361.542969v15.890625c0 7.265625 5.945312 13.214844 13.214844 13.214844h209.949218c7.265626 0 13.210938-5.949219 13.210938-13.214844v-15.890625zm0 0" fill="#576574"/><path d="m139.03125 377.433594v-15.890625h-30v15.890625c0 7.265625 5.945312 13.214844 13.214844 13.214844h30c-7.265625 0-13.214844-5.949219-13.214844-13.214844zm0 0" fill="#3e4b5a"/><path d="m23.847656 48.058594h406.742188v276.519531h-406.742188zm0 0" fill="#e4eaf8"/><path d="m23.847656 48.058594h30v276.519531h-30zm0 0" fill="#ccd2db"/><path d="m435.210938 7.574219h-415.984376c-6.335937 0-11.515624 5.179687-11.515624 11.515625v21.585937c0 6.335938 5.179687 11.515625 11.515624 11.515625h415.984376c6.332031 0 11.515624-5.179687 11.515624-11.515625v-21.585937c0-6.335938-5.179687-11.515625-11.515624-11.515625zm0 0" fill="#3e4b5a"/><path d="m435.210938 22.691406h-415.984376c-4.945312 0-9.171874-3.160156-10.796874-7.558594-.457032 1.238282-.71875 2.566407-.71875 3.957032v21.589844c0 6.332031 5.183593 11.515624 11.515624 11.515624h415.984376c6.335937 0 11.515624-5.183593 11.515624-11.515624v-21.589844c0-1.390625-.261718-2.722656-.71875-3.957032-1.625 4.398438-5.851562 7.558594-10.796874 7.558594zm0 0" fill="#303f49"/><path d="m435.210938 319.921875h-415.984376c-6.335937 0-11.515624 5.183594-11.515624 11.515625v21.589844c0 6.335937 5.179687 11.515625 11.515624 11.515625h415.984376c6.332031 0 11.515624-5.179688 11.515624-11.515625v-21.589844c0-6.332031-5.179687-11.515625-11.515624-11.515625zm0 0" fill="#3e4b5a"/><path d="m435.210938 335.042969h-415.984376c-4.945312 0-9.171874-3.164063-10.796874-7.5625-.457032 1.238281-.71875 2.566406-.71875 3.957031v21.589844c0 6.332031 5.183593 11.515625 11.515624 11.515625h415.984376c6.335937 0 11.515624-5.183594 11.515624-11.515625v-21.589844c0-1.390625-.261718-2.71875-.71875-3.957031-1.625 4.398437-5.851562 7.5625-10.796874 7.5625zm0 0" fill="#303f49"/><path d="m163.492188 125.730469c0 13.789062-11.179688 24.964843-24.964844 24.964843-13.789063 0-24.964844-11.175781-24.964844-24.964843 0-13.785157 11.175781-24.964844 24.964844-24.964844 13.785156 0 24.964844 11.179687 24.964844 24.964844zm0 0" fill="#54a0ff"/><path d="m314.890625 246.386719c0 13.785156-11.175781 24.960937-24.964844 24.960937-13.789062 0-24.964843-11.175781-24.964843-24.960937 0-13.789063 11.175781-24.964844 24.964843-24.964844 13.789063 0 24.964844 11.175781 24.964844 24.964844zm0 0" fill="#54a0ff"/><path d="m143.628906 125.730469c0-8.140625 3.898438-15.371094 9.929688-19.929688-4.179688-3.15625-9.386719-5.035156-15.03125-5.035156-13.789063 0-24.964844 11.179687-24.964844 24.964844 0 13.789062 11.175781 24.964843 24.964844 24.964843 5.644531 0 10.851562-1.875 15.03125-5.035156-6.03125-4.554687-9.929688-11.785156-9.929688-19.929687zm0 0" fill="#338def"/><path d="m295.027344 246.386719c0-8.144531 3.898437-15.375 9.929687-19.929688-4.179687-3.160156-9.386719-5.035156-15.03125-5.035156-13.789062 0-24.964843 11.175781-24.964843 24.964844 0 13.785156 11.179687 24.960937 24.964843 24.960937 5.644531 0 10.851563-1.875 15.03125-5.035156-6.03125-4.554688-9.929687-11.785156-9.929687-19.925781zm0 0" fill="#338def"/><path d="m302.214844 143.984375 37.667968-23.054687c1.742188-1.0625 1.742188-4.105469 0-5.167969l-37.667968-23.054688c-1.570313-.960937-3.417969.4375-3.417969 2.585938v46.105469c0 2.148437 1.84375 3.546874 3.417969 2.585937zm0 0" fill="#feca57"/><path d="m328.796875 108.976562-26.585937-16.269531c-1.570313-.960937-3.414063.4375-3.414063 2.585938v46.105469c0 2.148437 1.84375 3.546874 3.414063 2.585937l26.585937-16.269531zm0 0" fill="#f4b537"/><path d="m19.015625 371.972656h82.304687v5.386719c0 11.421875 9.292969 20.714844 20.714844 20.714844h11.316406l-34.320312 94.296875c-3.46875 9.527344 3.601562 19.628906 13.742188 19.628906h32.320312c6.125 0 11.648438-3.867188 13.742188-9.625l37.964843-104.300781h10.957031c4.144532 0 7.503907-3.359375 7.503907-7.5 0-4.144531-3.359375-7.5-7.503907-7.5-18.863281 0-69.253906 0-85.722656 0-3.152344 0-5.714844-2.5625-5.714844-5.714844v-5.386719h221.375v5.386719c0 3.152344-2.5625 5.714844-5.714843 5.714844-9.175781 0-78.125 0-89.21875 0-4.144531 0-7.5 3.355469-7.5 7.5 0 4.140625 3.355469 7.5 7.5 7.5h14.453125l37.964844 104.300781c2.09375 5.757812 7.617187 9.625 13.742187 9.625h32.320313c10.140624 0 17.210937-10.101562 13.742187-19.628906l-34.320313-94.296875h11.316407c11.421875 0 20.714843-9.292969 20.714843-20.714844v-5.386719h82.304688c10.484375 0 19.015625-8.53125 19.015625-19.015625v-21.589843c0-9.503907-7.015625-17.378907-16.136719-18.773438v-109.105469c0-4.144531-3.359375-7.5-7.5-7.5-4.144531 0-7.5 3.355469-7.5 7.5v108.863281h-391.742187v-252.730468h391.742187v108.863281c0 4.144531 3.359375 7.5 7.503906 7.5 4.140626 0 7.5-3.355469 7.5-7.5v-109.105469c9.121094-1.394531 16.136719-9.269531 16.136719-18.773437v-21.589844c0-10.484375-8.53125-19.015625-19.019531-19.015625h-415.984375c-10.484375 0-19.015625 8.53125-19.015625 19.015625v21.589844c0 9.503906 7.015625 17.378906 16.136719 18.773437v253.214844c-9.121094 1.394531-16.136719 9.269531-16.136719 18.773438v21.589843c0 10.484375 8.53125 19.015625 19.015625 19.015625zm161.824219 26.101563-36.007813 98.925781h-31.519531l36.003906-98.925781zm159.867187 98.925781h-31.519531l-36.007812-98.925781h31.519531zm-325.707031-477.984375c0-2.175781 1.839844-4.015625 4.015625-4.015625h415.988281c2.175782 0 4.015625 1.839844 4.015625 4.015625v21.589844c0 2.175781-1.839843 4.015625-4.015625 4.015625-4.449218 0-411.300781 0-415.988281 0-2.175781 0-4.015625-1.839844-4.015625-4.015625zm0 312.351563c0-2.175782 1.839844-4.015626 4.015625-4.015626h415.988281c2.175782 0 4.015625 1.839844 4.015625 4.015626v21.589843c0 2.175781-1.839843 4.015625-4.015625 4.015625h-89.804687c-3.550781 0-317.980469 0-326.183594 0-2.175781 0-4.015625-1.839844-4.015625-4.015625zm0 0"/><path d="m138.316406 93.195312c-17.902344 0-32.464844 14.5625-32.464844 32.464844s14.5625 32.464844 32.464844 32.464844 32.464844-14.5625 32.464844-32.464844-14.5625-32.464844-32.464844-32.464844zm0 49.929688c-9.628906 0-17.464844-7.835938-17.464844-17.464844s7.835938-17.464844 17.464844-17.464844 17.464844 7.835938 17.464844 17.464844-7.835938 17.464844-17.464844 17.464844zm0 0"/><path d="m257.25 246.3125c0 17.902344 14.566406 32.464844 32.464844 32.464844 17.902344 0 32.464844-14.5625 32.464844-32.464844s-14.5625-32.464844-32.464844-32.464844-32.464844 14.5625-32.464844 32.464844zm49.929688 0c0 9.628906-7.832032 17.464844-17.464844 17.464844-9.628906 0-17.464844-7.835938-17.464844-17.464844s7.835938-17.464844 17.464844-17.464844c9.632812 0 17.464844 7.835938 17.464844 17.464844zm0 0"/><path d="m164.21875 220.410156c-2.929688-2.929687-7.679688-2.929687-10.609375 0l-15.292969 15.292969-15.292968-15.292969c-2.929688-2.929687-7.675782-2.929687-10.605469 0-2.929688 2.929688-2.929688 7.679688 0 10.609375l15.292969 15.292969-15.292969 15.292969c-2.929688 2.929687-2.929688 7.679687 0 10.605469 2.929687 2.929687 7.675781 2.929687 10.605469 0l15.292968-15.292969 15.292969 15.292969c2.929687 2.929687 7.679687 2.929687 10.609375 0 2.929688-2.925782 2.929688-7.675782 0-10.605469l-15.292969-15.292969 15.292969-15.292969c2.925781-2.929687 2.925781-7.679687 0-10.609375zm0 0"/><path d="m343.589844 109.289062-37.671875-23.050781c-6.601563-4.039062-14.832031.976563-14.832031 8.984375v16.023438c-36.097657 3.46875-68.445313 20.089844-93.863282 48.328125-20.125 22.355469-28.800781 43.953125-29.160156 44.859375-1.523438 3.851562.363281 8.210937 4.21875 9.734375 3.84375 1.523437 8.207031-.359375 9.730469-4.214844.304687-.773437 30.679687-75.261719 109.074219-83.632813v15.003907c0 8.007812 8.226562 13.023437 14.832031 8.984375l37.671875-23.054688c6.515625-3.988281 6.527344-13.964844 0-17.964844zm-37.503906 23.328126v-28.6875l23.441406 14.34375zm0 0"/></svg>